<svg version="1.1" id="Layer_1" xmlns="http://www.w3.org/2000/svg" xmlns:xlink="http://www.w3.org/1999/xlink" x="0px" y="0px"
	 width="100%" viewBox="0 0 1024 1024" enable-background="new 0 0 1024 1024" xml:space="preserve">
<path fill="#FEFEFE" opacity="1.000000" stroke="none" 
	d="
M575.000000,1025.000000 
	C383.333344,1025.000000 192.166672,1025.000000 1.000000,1025.000000 
	C1.000000,683.666687 1.000000,342.333344 1.000000,1.000000 
	C342.333344,1.000000 683.666687,1.000000 1025.000000,1.000000 
	C1025.000000,342.333344 1025.000000,683.666687 1025.000000,1025.000000 
	C875.166687,1025.000000 725.333313,1025.000000 575.000000,1025.000000 
M376.986450,475.116547 
	C377.089966,474.800507 377.193512,474.484467 377.173370,474.158813 
	C377.173370,474.158813 377.233704,474.267212 377.769012,473.906433 
	C378.249298,472.267273 378.729614,470.628143 379.585358,468.385986 
	C379.539062,467.926208 379.492767,467.466400 379.621490,466.243225 
	C378.206635,456.698456 372.468719,451.964294 362.035217,452.336945 
	C351.706940,452.402771 341.378693,452.468567 330.170349,452.272156 
	C327.428528,452.373962 324.686707,452.475769 321.044800,452.351654 
	C316.045319,452.405426 311.045837,452.459167 305.320801,452.290985 
	C302.769012,453.526672 300.217224,454.762329 297.319580,456.136169 
	C297.102051,456.297302 296.995117,456.513153 296.366364,457.101318 
	C295.377014,460.202271 293.540558,463.300171 293.529266,466.404694 
	C293.415192,497.717896 293.523468,529.033020 293.837006,560.344849 
	C293.863983,563.038391 295.808441,565.712708 296.939240,568.787476 
	C297.091614,569.046143 297.317291,569.161743 297.998169,569.745056 
	C300.572418,570.765320 303.136475,572.638184 305.722565,572.669128 
	C324.146271,572.889709 342.574463,572.734192 361.737976,572.886230 
	C362.491425,572.829590 363.244873,572.772949 364.800842,572.887207 
	C373.488586,572.123535 378.778839,567.440491 379.653839,559.738892 
	C380.442749,552.794983 376.385620,547.038330 368.255798,544.128296 
	C366.828491,544.111572 365.401184,544.094910 363.611115,543.891296 
	C363.083710,543.953064 362.556274,544.014893 361.273407,543.910217 
	C360.506378,543.967407 359.739319,544.024536 358.252258,543.896973 
	C355.512024,543.958252 352.771820,544.019470 349.108398,543.910461 
	C344.393433,543.977051 339.678467,544.043640 334.290863,543.935669 
	C332.209198,543.997253 330.127502,544.058838 327.358154,543.942993 
	C326.892059,544.003296 326.425934,544.063599 325.390686,543.952454 
	C324.417786,543.996216 323.444916,544.039978 322.011658,543.602600 
	C321.863373,543.437439 321.715118,543.272278 321.803711,542.190308 
	C321.747223,537.793335 321.690735,533.396423 321.866882,528.323303 
	C321.878845,528.085327 321.890808,527.847290 322.847321,527.487061 
	C333.336212,527.454285 343.831482,527.634216 354.311829,527.318237 
	C362.011719,527.085938 366.759094,522.600281 368.756073,514.259460 
	C368.693756,513.175293 368.631409,512.091125 368.660400,510.292206 
	C366.120697,502.299866 361.226349,498.702118 352.790771,498.686646 
	C342.647675,498.668060 332.504517,498.682251 322.235809,498.682251 
	C322.235809,492.775391 322.235809,487.067230 322.235809,481.000977 
	C337.064117,481.000977 351.532257,481.000977 366.711304,481.137207 
	C367.824799,480.808990 368.938263,480.480743 370.701904,480.135132 
	C371.586517,479.557800 372.471100,478.980438 373.048584,478.017700 
	C373.048584,478.017700 373.372467,478.389404 373.814514,478.289520 
	C374.103699,478.154999 374.306915,477.939453 374.517395,477.536072 
	C374.517395,477.536072 374.639465,477.463837 375.120178,477.218597 
	C375.572571,476.671844 376.024933,476.125061 376.486389,475.471710 
	C376.486389,475.471710 376.583862,475.427490 376.986450,475.116547 
M456.377258,518.094849 
	C456.302063,515.411987 456.226898,512.729126 456.368256,509.123749 
	C456.268036,494.073975 456.167816,479.024231 456.204681,463.214813 
	C453.330750,452.757782 442.534821,448.324554 433.984741,454.163422 
	C429.479706,457.239929 427.839935,461.686279 427.856903,467.067688 
	C427.928894,489.864044 427.905914,512.660950 427.839600,535.457397 
	C427.817413,543.080200 422.443634,547.480164 416.412903,544.694763 
	C414.446808,543.786682 412.938751,541.719421 411.444122,539.989685 
	C407.223358,535.104980 401.959106,533.598511 396.250580,535.819702 
	C390.371368,538.107361 386.204010,543.815735 387.376678,549.869568 
	C388.227112,554.259888 390.141113,558.816956 392.791718,562.405273 
	C397.736450,569.099304 405.101349,572.272339 413.230377,573.729675 
	C435.015411,577.635010 455.981293,561.122925 456.223236,539.085449 
	C456.189850,532.375977 456.156433,525.666504 456.377258,518.094849 
M536.202271,405.370178 
	C535.895996,405.451660 535.589722,405.533173 535.283447,405.614685 
	C535.521301,405.744080 535.759094,405.873444 536.074097,406.678925 
	C541.649841,412.860474 547.216919,419.049957 552.803040,425.222076 
	C570.374756,444.636841 586.360107,465.328186 593.372620,490.926331 
	C598.541199,509.793945 601.305481,529.332764 604.858215,548.624634 
	C606.401794,557.006042 607.235168,565.518250 608.391113,573.971008 
	C609.625916,573.213318 609.876343,572.494324 609.985657,571.754395 
	C612.054688,557.751221 614.311951,543.772034 616.123535,529.735413 
	C621.135742,490.899292 636.240906,456.818848 663.217529,428.179901 
	C669.899536,421.086151 676.327454,413.752991 682.872192,406.529877 
	C680.849548,406.696991 679.518311,407.721436 678.162781,408.712677 
	C665.417786,418.032501 653.177673,428.166504 639.801208,436.469696 
	C619.883179,448.833435 598.775452,449.062469 578.816223,436.622803 
	C565.318298,428.210205 553.005493,417.897552 540.144104,408.459991 
	C538.866028,407.522156 537.458801,406.760284 536.202271,405.370178 
M767.321167,452.302032 
	C759.151306,454.464203 755.969360,458.256989 755.956726,466.308563 
	C755.908325,497.113037 755.896240,527.917664 755.945496,558.722107 
	C755.960022,567.802002 760.736450,572.731506 769.719116,572.800537 
	C788.867126,572.947754 808.016602,572.969543 827.165222,572.928955 
	C835.762207,572.910706 842.351013,566.413818 842.314758,558.301636 
	C842.277039,549.858215 836.065063,543.889832 827.222290,543.874756 
	C814.567505,543.853149 801.912537,543.884644 789.257690,543.870728 
	C787.653992,543.868958 786.050476,543.729614 784.360352,543.649902 
	C784.360352,538.113525 784.360352,533.018066 784.360352,527.387756 
	C786.390991,527.387756 788.178101,527.385864 789.965210,527.388123 
	C798.623718,527.399231 807.284851,527.549988 815.940002,527.384766 
	C824.866272,527.214355 831.087708,521.103088 831.100586,512.865234 
	C831.112915,504.968292 824.866211,499.059235 816.009583,498.894897 
	C807.686890,498.740509 799.359192,498.853851 791.033691,498.849915 
	C788.790710,498.848846 786.547729,498.849762 784.416077,498.849762 
	C784.416077,492.469513 784.416077,486.895447 784.416077,481.185150 
	C799.058533,481.185150 813.365723,481.284912 827.670654,481.147461 
	C836.147156,481.066040 842.509155,474.294952 842.271423,466.036407 
	C842.043884,458.135101 835.514221,452.301849 826.054138,452.204132 
	C806.713440,452.298737 787.372742,452.393372 767.321167,452.302032 
M213.395660,561.256653 
	C213.480988,559.602051 213.636032,557.947693 213.641159,556.292786 
	C213.719070,531.183533 213.777374,506.074249 214.797104,480.931519 
	C222.790329,480.950928 230.785278,480.873901 238.776260,481.017578 
	C246.382004,481.154358 252.508438,487.901337 252.125458,495.465363 
	C251.701889,503.831390 245.059067,509.619202 235.940430,509.567108 
	C227.303131,509.517792 222.110840,513.052429 220.228973,520.403687 
	C218.533524,527.026794 220.011078,532.729614 224.742935,537.876099 
	C233.868057,547.800720 242.672028,558.019836 251.692749,568.041565 
	C257.488922,574.480896 266.146393,575.234497 272.173248,570.036194 
	C277.324554,565.593079 280.105530,555.879578 273.088898,548.745911 
	C267.883728,543.453857 263.296753,537.553650 258.434723,531.924744 
	C274.817627,521.451843 282.533325,506.947418 279.776917,488.120148 
	C277.235687,470.762299 266.759796,459.462738 249.276901,453.826141 
	C247.324631,453.426819 245.376251,452.703125 243.419495,452.679657 
	C228.290497,452.498169 213.159866,452.452179 197.286041,452.156372 
	C189.602402,453.574860 186.068161,457.325836 185.215973,465.559296 
	C185.200150,485.164032 185.140793,504.768890 185.184662,524.373474 
	C185.211411,536.326721 185.397095,548.279480 185.326172,560.829041 
	C187.297470,569.225891 192.086349,573.405945 199.572723,573.264404 
	C206.836960,573.127136 211.550827,569.195190 213.395660,561.256653 
M552.301697,566.851929 
	C553.324463,566.292725 554.362793,565.759949 555.367798,565.170410 
	C577.543579,552.162109 589.715332,526.794250 585.449463,502.490387 
	C580.879272,476.452301 561.522278,456.719604 535.911804,451.991211 
	C511.210144,447.430603 485.236969,459.170105 472.065308,480.848907 
	C458.318665,503.474091 461.071075,533.390015 478.689453,552.846313 
	C497.566467,573.692566 526.093811,579.281616 552.301697,566.851929 
M704.008362,481.099152 
	C710.643311,483.328827 715.984680,487.323090 720.755249,492.438873 
	C723.026428,494.874390 726.118042,497.083466 729.253418,498.056030 
	C734.815125,499.781281 740.555786,496.838684 743.724304,491.708984 
	C747.234558,486.026062 746.721985,480.081451 741.696533,474.290466 
	C725.432861,455.549530 705.023132,447.180145 680.515442,452.412292 
	C656.087646,457.627441 639.709900,473.031586 633.712219,497.202850 
	C627.599426,521.838379 634.435791,543.538879 654.332703,560.014954 
	C680.286499,581.506531 720.543213,578.476013 743.339050,547.440674 
	C747.961792,541.147095 746.913757,533.928955 741.311096,529.074158 
	C735.165894,523.749207 727.139648,524.389832 721.420776,530.864685 
	C715.074341,538.050110 707.782898,543.648682 697.998779,544.953491 
	C684.270386,546.784363 671.069641,540.370178 664.431458,528.886719 
	C657.674561,517.197632 658.662354,503.177429 667.007996,492.316376 
	C675.559143,481.187866 688.849548,477.005981 704.008362,481.099152 
M608.610657,406.512543 
	C607.458557,406.681396 606.278748,406.744232 605.158875,407.036591 
	C598.479797,408.779968 593.916138,414.688293 593.766052,421.703522 
	C593.614807,428.773315 598.174561,435.097107 604.901978,437.147644 
	C611.575867,439.181885 617.744385,436.877472 621.783569,430.841064 
	C628.771179,420.398499 622.740356,408.525330 608.610657,406.512543 
z"/>
<path fill="#28A095" opacity="1.000000" stroke="none" 
	d="
M551.955627,566.992371 
	C526.093811,579.281616 497.566467,573.692566 478.689453,552.846313 
	C461.071075,533.390015 458.318665,503.474091 472.065308,480.848907 
	C485.236969,459.170105 511.210144,447.430603 535.911804,451.991211 
	C561.522278,456.719604 580.879272,476.452301 585.449463,502.490387 
	C589.715332,526.794250 577.543579,552.162109 555.367798,565.170410 
	C554.362793,565.759949 553.324463,566.292725 551.955627,566.992371 
M492.993927,522.159607 
	C495.683044,526.499390 497.796600,531.361084 501.169373,535.080994 
	C511.228912,546.175781 527.852783,548.393188 540.920715,540.982605 
	C554.408203,533.334106 561.001953,518.718201 557.293152,504.690674 
	C552.446411,486.358795 534.715210,475.693726 516.548340,480.183350 
	C498.882141,484.549194 488.394958,502.699188 492.993927,522.159607 
z"/>
<path fill="#294145" opacity="1.000000" stroke="none" 
	d="
M185.431076,464.738312 
	C186.068161,457.325836 189.602402,453.574860 197.791565,452.621643 
	C200.014938,453.391724 201.731201,453.949982 203.450882,453.960632 
	C215.752182,454.036896 228.054199,453.990356 240.355942,454.009644 
	C243.556702,454.014679 246.757339,454.114624 249.958023,454.170959 
	C266.759796,459.462738 277.235687,470.762299 279.776917,488.120148 
	C282.533325,506.947418 274.817627,521.451843 258.434723,531.924744 
	C263.296753,537.553650 267.883728,543.453857 273.088898,548.745911 
	C280.105530,555.879578 277.324554,565.593079 272.173248,570.036194 
	C266.146393,575.234497 257.488922,574.480896 251.692749,568.041565 
	C242.672028,558.019836 233.868057,547.800720 224.742935,537.876099 
	C220.011078,532.729614 218.533524,527.026794 220.228973,520.403687 
	C222.110840,513.052429 227.303131,509.517792 235.940430,509.567108 
	C245.059067,509.619202 251.701889,503.831390 252.125458,495.465363 
	C252.508438,487.901337 246.382004,481.154358 238.776260,481.017578 
	C230.785278,480.873901 222.790329,480.950928 213.945251,481.086060 
	C212.728531,482.752808 212.050049,484.264130 212.045700,485.777374 
	C211.977142,509.649780 211.975540,533.522522 212.039169,557.394897 
	C212.043274,558.935852 212.703888,560.475037 213.059113,562.015076 
	C211.550827,569.195190 206.836960,573.127136 199.572723,573.264404 
	C192.086349,573.405945 187.297470,569.225891 185.791229,560.265381 
	C186.502502,558.764160 186.962662,557.826843 186.963898,556.888855 
	C187.002716,527.464172 187.016739,498.039368 186.931458,468.614868 
	C186.927704,467.321259 185.953323,466.030426 185.431076,464.738312 
z"/>
<path fill="#284044" opacity="1.000000" stroke="none" 
	d="
M826.974365,452.370972 
	C835.514221,452.301849 842.043884,458.135101 842.271423,466.036407 
	C842.509155,474.294952 836.147156,481.066040 827.670654,481.147461 
	C813.365723,481.284912 799.058533,481.185150 784.416077,481.185150 
	C784.416077,486.895447 784.416077,492.469513 784.416077,498.849762 
	C786.547729,498.849762 788.790710,498.848846 791.033691,498.849915 
	C799.359192,498.853851 807.686890,498.740509 816.009583,498.894897 
	C824.866211,499.059235 831.112915,504.968292 831.100586,512.865234 
	C831.087708,521.103088 824.866272,527.214355 815.940002,527.384766 
	C807.284851,527.549988 798.623718,527.399231 789.965210,527.388123 
	C788.178101,527.385864 786.390991,527.387756 784.360352,527.387756 
	C784.360352,533.018066 784.360352,538.113525 784.360352,543.649902 
	C786.050476,543.729614 787.653992,543.868958 789.257690,543.870728 
	C801.912537,543.884644 814.567505,543.853149 827.222290,543.874756 
	C836.065063,543.889832 842.277039,549.858215 842.314758,558.301636 
	C842.351013,566.413818 835.762207,572.910706 827.165222,572.928955 
	C808.016602,572.969543 788.867126,572.947754 769.719116,572.800537 
	C760.736450,572.731506 755.960022,567.802002 755.945496,558.722107 
	C755.896240,527.917664 755.908325,497.113037 755.956726,466.308563 
	C755.969360,458.256989 759.151306,454.464203 767.825562,452.742737 
	C769.068848,453.454559 769.807251,453.960571 770.546875,453.962402 
	C788.305420,454.006622 806.064148,454.024628 823.822266,453.927490 
	C824.875793,453.921692 825.923828,452.912994 826.974365,452.370972 
z"/>
<path fill="#284044" opacity="1.000000" stroke="none" 
	d="
M703.603821,481.013885 
	C688.849548,477.005981 675.559143,481.187866 667.007996,492.316376 
	C658.662354,503.177429 657.674561,517.197632 664.431458,528.886719 
	C671.069641,540.370178 684.270386,546.784363 697.998779,544.953491 
	C707.782898,543.648682 715.074341,538.050110 721.420776,530.864685 
	C727.139648,524.389832 735.165894,523.749207 741.311096,529.074158 
	C746.913757,533.928955 747.961792,541.147095 743.339050,547.440674 
	C720.543213,578.476013 680.286499,581.506531 654.332703,560.014954 
	C634.435791,543.538879 627.599426,521.838379 633.712219,497.202850 
	C639.709900,473.031586 656.087646,457.627441 680.515442,452.412292 
	C705.023132,447.180145 725.432861,455.549530 741.696533,474.290466 
	C746.721985,480.081451 747.234558,486.026062 743.724304,491.708984 
	C740.555786,496.838684 734.815125,499.781281 729.253418,498.056030 
	C726.118042,497.083466 723.026428,494.874390 720.755249,492.438873 
	C715.984680,487.323090 710.643311,483.328827 703.603821,481.013885 
z"/>
<path fill="#284044" opacity="1.000000" stroke="none" 
	d="
M368.569092,511.006958 
	C368.631409,512.091125 368.693756,513.175293 368.254639,514.711304 
	C364.843079,520.844543 360.735291,525.232361 354.046753,525.731628 
	C348.427002,526.151001 342.747955,525.700500 337.103546,525.888123 
	C332.079132,526.055054 327.066254,526.569031 321.974792,526.800903 
	C321.805420,526.632019 321.709534,526.592102 321.613617,526.552185 
	C321.717163,526.719055 321.820679,526.885925 321.926025,527.192200 
	C321.927887,527.331604 321.902771,527.609253 321.902771,527.609253 
	C321.890808,527.847290 321.878845,528.085327 321.388489,528.790894 
	C321.128998,533.874695 321.347900,538.490845 321.566833,543.107056 
	C321.715118,543.272278 321.863373,543.437439 322.477081,543.841919 
	C323.948273,544.095398 324.954071,544.109619 325.959839,544.123901 
	C326.425934,544.063599 326.892059,544.003296 327.968414,544.288452 
	C330.706940,544.459351 332.835236,544.284790 334.963501,544.110168 
	C339.678467,544.043640 344.393433,543.977051 349.851318,544.266724 
	C353.386932,544.442566 356.179626,544.262146 358.972290,544.081665 
	C359.739319,544.024536 360.506378,543.967407 361.794891,544.206177 
	C362.868896,544.360779 363.421387,544.219482 363.973877,544.078247 
	C365.401184,544.094910 366.828491,544.111572 368.627441,544.716553 
	C369.521698,546.214661 369.866425,547.316284 370.600891,547.997803 
	C372.632172,549.882385 375.489838,551.199890 376.818542,553.451111 
	C379.643463,558.237488 377.859680,563.807678 372.731201,567.523621 
	C370.000000,569.502625 366.920563,571.001038 363.998291,572.716309 
	C363.244873,572.772949 362.491425,572.829590 361.246338,572.422119 
	C359.206116,571.638672 357.659546,571.054321 356.108673,571.042786 
	C345.304291,570.962036 334.492188,571.237793 323.696289,570.925171 
	C314.992950,570.672974 306.308899,569.756165 297.616272,569.134216 
	C297.317291,569.161743 297.091614,569.046143 296.906311,568.166748 
	C296.248505,562.636108 295.127960,557.730591 295.084076,552.815491 
	C294.887909,530.839783 294.796631,508.858734 295.089355,486.885254 
	C295.223083,476.844696 296.332092,466.817169 296.998749,456.783722 
	C296.995117,456.513153 297.102051,456.297302 297.862579,456.046692 
	C300.930603,455.307892 303.455627,454.658508 306.448853,454.006104 
	C311.955627,454.003540 316.994171,454.003998 322.478577,454.002258 
	C325.610657,454.001251 328.296906,454.002380 331.452881,454.002686 
	C342.285400,454.002045 352.648193,454.002258 363.413147,454.001343 
	C370.199615,454.399719 376.128693,459.118073 378.056641,465.227600 
	C378.268768,465.899841 378.971375,466.417328 379.446472,467.006622 
	C379.492767,467.466400 379.539062,467.926208 379.087524,468.802734 
	C378.137665,470.902069 377.685699,472.584656 377.233704,474.267212 
	C377.233704,474.267212 377.173370,474.158813 376.955200,474.256470 
	C376.685974,474.711884 376.634918,475.069702 376.583862,475.427490 
	C376.583862,475.427490 376.486389,475.471710 376.106171,475.397278 
	C375.363800,476.036499 375.001617,476.750153 374.639465,477.463837 
	C374.639465,477.463837 374.517395,477.536072 374.195312,477.507629 
	C373.706299,477.782562 373.539368,478.085968 373.372437,478.389404 
	C373.372467,478.389404 373.048584,478.017700 372.854736,478.115784 
	C371.791199,478.860077 370.921478,479.506317 370.051758,480.152527 
	C368.938263,480.480743 367.824799,480.808990 366.061035,480.773010 
	C351.434265,480.279266 337.457520,480.082947 323.481903,480.144287 
	C322.335358,480.149292 320.228271,481.894989 320.215729,482.853455 
	C320.148743,487.972351 320.468475,493.112396 320.999329,498.209229 
	C321.103912,499.213470 322.703278,500.835571 323.644165,500.857666 
	C331.637085,501.045197 339.681610,501.445160 347.622894,500.761505 
	C356.045471,500.036407 362.085510,502.434113 366.538330,509.746002 
	C366.908203,510.353333 367.878021,510.595276 368.569092,511.006958 
z"/>
<path fill="#294145" opacity="1.000000" stroke="none" 
	d="
M536.111572,405.916748 
	C537.458801,406.760284 538.866028,407.522156 540.144104,408.459991 
	C553.005493,417.897552 565.318298,428.210205 578.816223,436.622803 
	C598.775452,449.062469 619.883179,448.833435 639.801208,436.469696 
	C653.177673,428.166504 665.417786,418.032501 678.162781,408.712677 
	C679.518311,407.721436 680.849548,406.696991 682.872192,406.529877 
	C676.327454,413.752991 669.899536,421.086151 663.217529,428.179901 
	C636.240906,456.818848 621.135742,490.899292 616.123535,529.735413 
	C614.311951,543.772034 612.054688,557.751221 609.985657,571.754395 
	C609.876343,572.494324 609.625916,573.213318 608.391113,573.971008 
	C607.235168,565.518250 606.401794,557.006042 604.858215,548.624634 
	C601.305481,529.332764 598.541199,509.793945 593.372620,490.926331 
	C586.360107,465.328186 570.374756,444.636841 552.803040,425.222076 
	C547.216919,419.049957 541.649841,412.860474 536.063721,406.318726 
	C536.053345,405.958557 536.111572,405.916748 536.111572,405.916748 
z"/>
<path fill="#284044" opacity="1.000000" stroke="none" 
	d="
M455.994965,539.998535 
	C455.981293,561.122925 435.015411,577.635010 413.230377,573.729675 
	C405.101349,572.272339 397.736450,569.099304 392.791718,562.405273 
	C390.141113,558.816956 388.227112,554.259888 387.376678,549.869568 
	C386.204010,543.815735 390.371368,538.107361 396.250580,535.819702 
	C401.959106,533.598511 407.223358,535.104980 411.444122,539.989685 
	C412.938751,541.719421 414.446808,543.786682 416.412903,544.694763 
	C422.443634,547.480164 427.817413,543.080200 427.839600,535.457397 
	C427.905914,512.660950 427.928894,489.864044 427.856903,467.067688 
	C427.839935,461.686279 429.479706,457.239929 433.984741,454.163422 
	C442.534821,448.324554 453.330750,452.757782 455.825165,463.879822 
	C455.325256,479.178314 455.193512,493.811798 455.130066,508.445557 
	C455.127777,508.977661 455.795990,509.512604 456.151703,510.046234 
	C456.226898,512.729126 456.302063,515.411987 455.928223,518.803345 
	C455.651093,526.340759 455.823029,533.169617 455.994965,539.998535 
z"/>
<path fill="#294145" opacity="1.000000" stroke="none" 
	d="
M609.004150,406.484314 
	C622.740356,408.525330 628.771179,420.398499 621.783569,430.841064 
	C617.744385,436.877472 611.575867,439.181885 604.901978,437.147644 
	C598.174561,435.097107 593.614807,428.773315 593.766052,421.703522 
	C593.916138,414.688293 598.479797,408.779968 605.158875,407.036591 
	C606.278748,406.744232 607.458557,406.681396 609.004150,406.484314 
z"/>
<path fill="#294145" opacity="1.000000" stroke="none" 
	d="
M368.614746,510.649597 
	C367.878021,510.595276 366.908203,510.353333 366.538330,509.746002 
	C362.085510,502.434113 356.045471,500.036407 347.622894,500.761505 
	C339.681610,501.445160 331.637085,501.045197 323.644165,500.857666 
	C322.703278,500.835571 321.103912,499.213470 320.999329,498.209229 
	C320.468475,493.112396 320.148743,487.972351 320.215729,482.853455 
	C320.228271,481.894989 322.335358,480.149292 323.481903,480.144287 
	C337.457520,480.082947 351.434265,480.279266 365.705566,480.704895 
	C351.532257,481.000977 337.064117,481.000977 322.235809,481.000977 
	C322.235809,487.067230 322.235809,492.775391 322.235809,498.682251 
	C332.504517,498.682251 342.647675,498.668060 352.790771,498.686646 
	C361.226349,498.702118 366.120697,502.299866 368.614746,510.649597 
z"/>
<path fill="#294145" opacity="1.000000" stroke="none" 
	d="
M296.682556,456.942505 
	C296.332092,466.817169 295.223083,476.844696 295.089355,486.885254 
	C294.796631,508.858734 294.887909,530.839783 295.084076,552.815491 
	C295.127960,557.730591 296.248505,562.636108 296.867737,567.971069 
	C295.808441,565.712708 293.863983,563.038391 293.837006,560.344849 
	C293.523468,529.033020 293.415192,497.717896 293.529266,466.404694 
	C293.540558,463.300171 295.377014,460.202271 296.682556,456.942505 
z"/>
<path fill="#1B2F32" opacity="1.000000" stroke="none" 
	d="
M185.323517,465.148804 
	C185.953323,466.030426 186.927704,467.321259 186.931458,468.614868 
	C187.016739,498.039368 187.002716,527.464172 186.963898,556.888855 
	C186.962662,557.826843 186.502502,558.764160 185.883850,559.967163 
	C185.397095,548.279480 185.211411,536.326721 185.184662,524.373474 
	C185.140793,504.768890 185.200150,485.164032 185.323517,465.148804 
z"/>
<path fill="#1B2F32" opacity="1.000000" stroke="none" 
	d="
M213.227386,561.635864 
	C212.703888,560.475037 212.043274,558.935852 212.039169,557.394897 
	C211.975540,533.522522 211.977142,509.649780 212.045700,485.777374 
	C212.050049,484.264130 212.728531,482.752808 213.466812,481.102783 
	C213.777374,506.074249 213.719070,531.183533 213.641159,556.292786 
	C213.636032,557.947693 213.480988,559.602051 213.227386,561.635864 
z"/>
<path fill="#294145" opacity="1.000000" stroke="none" 
	d="
M297.807220,569.439636 
	C306.308899,569.756165 314.992950,570.672974 323.696289,570.925171 
	C334.492188,571.237793 345.304291,570.962036 356.108673,571.042786 
	C357.659546,571.054321 359.206116,571.638672 360.877991,572.328186 
	C342.574463,572.734192 324.146271,572.889709 305.722565,572.669128 
	C303.136475,572.638184 300.572418,570.765320 297.807220,569.439636 
z"/>
<path fill="#1B2F32" opacity="1.000000" stroke="none" 
	d="
M826.514282,452.287567 
	C825.923828,452.912994 824.875793,453.921692 823.822266,453.927490 
	C806.064148,454.024628 788.305420,454.006622 770.546875,453.962402 
	C769.807251,453.960571 769.068848,453.454559 768.180969,452.835693 
	C787.372742,452.393372 806.713440,452.298737 826.514282,452.287567 
z"/>
<path fill="#294145" opacity="1.000000" stroke="none" 
	d="
M322.375061,527.548157 
	C321.902771,527.609253 321.927887,527.331604 321.959717,527.164185 
	C321.991547,526.996704 322.048279,526.929871 322.048279,526.929871 
	C327.066254,526.569031 332.079132,526.055054 337.103546,525.888123 
	C342.747955,525.700500 348.427002,526.151001 354.046753,525.731628 
	C360.735291,525.232361 364.843079,520.844543 368.061096,515.075806 
	C366.759094,522.600281 362.011719,527.085938 354.311829,527.318237 
	C343.831482,527.634216 333.336212,527.454285 322.375061,527.548157 
z"/>
<path fill="#294145" opacity="1.000000" stroke="none" 
	d="
M364.399567,572.801758 
	C366.920563,571.001038 370.000000,569.502625 372.731201,567.523621 
	C377.859680,563.807678 379.643463,558.237488 376.818542,553.451111 
	C375.489838,551.199890 372.632172,549.882385 370.600891,547.997803 
	C369.866425,547.316284 369.521698,546.214661 368.989990,544.949829 
	C376.385620,547.038330 380.442749,552.794983 379.653839,559.738892 
	C378.778839,567.440491 373.488586,572.123535 364.399567,572.801758 
z"/>
<path fill="#1B2F32" opacity="1.000000" stroke="none" 
	d="
M249.617462,453.998566 
	C246.757339,454.114624 243.556702,454.014679 240.355942,454.009644 
	C228.054199,453.990356 215.752182,454.036896 203.450882,453.960632 
	C201.731201,453.949982 200.014938,453.391724 198.163422,452.725586 
	C213.159866,452.452179 228.290497,452.498169 243.419495,452.679657 
	C245.376251,452.703125 247.324631,453.426819 249.617462,453.998566 
z"/>
<path fill="#1B2F32" opacity="1.000000" stroke="none" 
	d="
M363.010986,454.002441 
	C352.648193,454.002258 342.285400,454.002045 331.461792,453.757446 
	C331.048798,453.188416 331.065277,452.862183 331.050415,452.534363 
	C341.378693,452.468567 351.706940,452.402771 362.487366,452.666321 
	C362.963318,453.331268 362.987152,453.666870 363.010986,454.002441 
z"/>
<path fill="#294145" opacity="1.000000" stroke="none" 
	d="
M363.413147,454.001343 
	C362.987152,453.666870 362.963318,453.331268 362.946533,452.743347 
	C372.468719,451.964294 378.206635,456.698456 379.533997,466.624939 
	C378.971375,466.417328 378.268768,465.899841 378.056641,465.227600 
	C376.128693,459.118073 370.199615,454.399719 363.413147,454.001343 
z"/>
<path fill="#1B2F32" opacity="1.000000" stroke="none" 
	d="
M456.259979,509.584991 
	C455.795990,509.512604 455.127777,508.977661 455.130066,508.445557 
	C455.193512,493.811798 455.325256,479.178314 455.756622,464.259644 
	C456.167816,479.024231 456.268036,494.073975 456.259979,509.584991 
z"/>
<path fill="#1B2F32" opacity="1.000000" stroke="none" 
	d="
M322.032745,454.004425 
	C316.994171,454.003998 311.955627,454.003540 306.460449,453.756287 
	C306.060883,453.179108 306.075073,452.846924 306.046356,452.512939 
	C311.045837,452.459167 316.045319,452.405426 321.500427,452.702881 
	C322.003784,453.369049 322.029358,453.685822 322.032745,454.004425 
z"/>
<path fill="#294145" opacity="1.000000" stroke="none" 
	d="
M321.685272,542.648682 
	C321.347900,538.490845 321.128998,533.874695 321.272156,529.128967 
	C321.690735,533.396423 321.747223,537.793335 321.685272,542.648682 
z"/>
<path fill="#294145" opacity="1.000000" stroke="none" 
	d="
M305.683594,452.401978 
	C306.075073,452.846924 306.060883,453.179108 305.992249,453.759308 
	C303.455627,454.658508 300.930603,455.307892 298.035492,455.977631 
	C300.217224,454.762329 302.769012,453.526672 305.683594,452.401978 
z"/>
<path fill="#1B2F32" opacity="1.000000" stroke="none" 
	d="
M456.109100,539.541992 
	C455.823029,533.169617 455.651093,526.340759 455.801086,519.234436 
	C456.156433,525.666504 456.189850,532.375977 456.109100,539.541992 
z"/>
<path fill="#294145" opacity="1.000000" stroke="none" 
	d="
M322.478577,454.002258 
	C322.029358,453.685822 322.003784,453.369049 321.950439,452.815826 
	C324.686707,452.475769 327.428528,452.373962 330.610382,452.403259 
	C331.065277,452.862183 331.048798,453.188416 330.992065,453.758301 
	C328.296906,454.002380 325.610657,454.001251 322.478577,454.002258 
z"/>
<path fill="#294145" opacity="1.000000" stroke="none" 
	d="
M358.612274,543.989319 
	C356.179626,544.262146 353.386932,544.442566 350.312927,544.351868 
	C352.771820,544.019470 355.512024,543.958252 358.612274,543.989319 
z"/>
<path fill="#294145" opacity="1.000000" stroke="none" 
	d="
M334.627197,544.022949 
	C332.835236,544.284790 330.706940,544.459351 328.312256,544.377197 
	C330.127502,544.058838 332.209198,543.997253 334.627197,544.022949 
z"/>
<path fill="#294145" opacity="1.000000" stroke="none" 
	d="
M377.501343,474.086823 
	C377.685699,472.584656 378.137665,470.902069 378.899780,469.104248 
	C378.729614,470.628143 378.249298,472.267273 377.501343,474.086823 
z"/>
<path fill="#294145" opacity="1.000000" stroke="none" 
	d="
M325.675262,544.038208 
	C324.954071,544.109619 323.948273,544.095398 322.707275,544.082458 
	C323.444916,544.039978 324.417786,543.996216 325.675262,544.038208 
z"/>
<path fill="#294145" opacity="1.000000" stroke="none" 
	d="
M370.376831,480.143829 
	C370.921478,479.506317 371.791199,478.860077 373.008301,478.308472 
	C372.471100,478.980438 371.586517,479.557800 370.376831,480.143829 
z"/>
<path fill="#294145" opacity="1.000000" stroke="none" 
	d="
M374.879822,477.341217 
	C375.001617,476.750153 375.363800,476.036499 376.101624,475.450562 
	C376.024933,476.125061 375.572571,476.671844 374.879822,477.341217 
z"/>
<path fill="#294145" opacity="1.000000" stroke="none" 
	d="
M363.792480,543.984741 
	C363.421387,544.219482 362.868896,544.360779 362.172607,544.289429 
	C362.556274,544.014893 363.083710,543.953064 363.792480,543.984741 
z"/>
<path fill="#294145" opacity="1.000000" stroke="none" 
	d="
M376.785156,475.272034 
	C376.634918,475.069702 376.685974,474.711884 377.017029,474.261261 
	C377.193512,474.484467 377.089966,474.800507 376.785156,475.272034 
z"/>
<path fill="#294145" opacity="1.000000" stroke="none" 
	d="
M373.593475,478.339478 
	C373.539368,478.085968 373.706299,477.782562 374.148682,477.561035 
	C374.306915,477.939453 374.103699,478.154999 373.593475,478.339478 
z"/>
<path fill="#294145" opacity="1.000000" stroke="none" 
	d="
M536.025146,405.980713 
	C535.759094,405.873444 535.521301,405.744080 535.283447,405.614685 
	C535.589722,405.533173 535.895996,405.451660 536.156921,405.643463 
	C536.111572,405.916748 536.053345,405.958557 536.025146,405.980713 
z"/>
<path fill="#FAFDFD" opacity="1.000000" stroke="none" 
	d="
M492.874329,521.760986 
	C488.394958,502.699188 498.882141,484.549194 516.548340,480.183350 
	C534.715210,475.693726 552.446411,486.358795 557.293152,504.690674 
	C561.001953,518.718201 554.408203,533.334106 540.920715,540.982605 
	C527.852783,548.393188 511.228912,546.175781 501.169373,535.080994 
	C497.796600,531.361084 495.683044,526.499390 492.874329,521.760986 
z"/>
<path fill="#294145" opacity="1.000000" stroke="none" 
	d="
M321.957886,527.024780 
	C321.820679,526.885925 321.717163,526.719055 321.613617,526.552185 
	C321.709534,526.592102 321.805420,526.632019 321.974792,526.800903 
	C322.048279,526.929871 321.991547,526.996704 321.957886,527.024780 
z"/>
</svg>